<svg height="512pt" viewBox="0 -4 512.001 512" width="512pt" xmlns="http://www.w3.org/2000/svg"><path d="m498.152344 473.34375h-484.304688c-7.648437 0-13.847656 6.199219-13.847656 13.847656v2.09375c0 7.644532 6.199219 13.847656 13.847656 13.847656h484.304688c7.648437 0 13.847656-6.199218 13.847656-13.847656v-2.09375c0-7.648437-6.199219-13.847656-13.847656-13.847656zm0 0" fill="#6c7fd9"/><path d="m498.152344 484.816406h-484.304688c-4.613281 0-8.691406-2.265625-11.207031-5.734375-1.65625 2.277344-2.640625 5.074219-2.640625 8.109375v2.09375c0 7.644532 6.199219 13.847656 13.847656 13.847656h484.304688c7.648437 0 13.847656-6.199218 13.847656-13.847656v-2.09375c0-3.03125-.984375-5.828125-2.640625-8.109375-2.515625 3.46875-6.589844 5.734375-11.207031 5.734375zm0 0" fill="#4f66d1"/><path d="m271.3125 49.746094c1.050781 2.839844 2.753906 5.394531 4.976562 7.453125l77.566407 71.832031-30.125 53.984375 32.609375 20.554687 38.5-69c4.328125-7.753906 2.789062-17.464843-3.726563-23.496093l-85.289062-78.984375-7.199219-19.503906c-3.683594-9.972657-14.753906-15.070313-24.722656-11.386719-9.96875 3.679687-15.066406 14.746093-11.386719 24.71875zm0 0" fill="#fed2a4"/><path d="m271.3125 49.746094c1.050781 2.839844 2.753906 5.394531 4.976562 7.453125l77.566407 71.832031-30.125 53.984375 20.296875 12.792969 7.324218-13.125 25.476563-45.652344c2.617187-4.695312 1.6875-10.574219-2.257813-14.226562l-70.84375-65.605469c-2.222656-2.058594-3.925781-4.613281-4.976562-7.453125l-8.796875-23.828125c-2.664063-7.214844-.714844-14.992188 4.339844-20.140625-5.148438-5.234375-13.0625-7.285156-20.390625-4.578125-9.96875 3.679687-15.070313 14.746093-11.386719 24.71875zm0 0" fill="#ffbd86"/><path d="m159.003906 203.300781 32.75-20.304687-30.113281-53.964844 77.5625-71.832031c2.222656-2.058594 3.929687-4.613281 4.976563-7.453125l8.796874-23.828125c3.683594-9.972657-1.414062-21.039063-11.386718-24.722657-9.972656-3.679687-21.039063 1.417969-24.71875 11.390626l-7.203125 19.503906-85.285157 78.980468c-6.515624 6.035157-8.058593 15.746094-3.730468 23.5zm0 0" fill="#fed2a4"/><path d="m147.011719 134.570312c-4.328125-7.753906-2.785157-17.464843 3.726562-23.5l85.289063-78.980468 7.199218-19.503906c1.074219-2.898438 2.78125-5.371094 4.890626-7.351563-1.828126-1.722656-4.023438-3.113281-6.527344-4.039063-9.972656-3.679687-21.039063 1.417969-24.71875 11.390626l-7.203125 19.503906-85.285157 78.980468c-6.515624 6.035157-8.058593 15.746094-3.730468 23.5l38.351562 68.730469 19.585938-12.140625zm0 0" fill="#ffbd86"/><path d="m179.636719 402.636719-115.929688 32.867187c-.054687.015625-.109375.039063-.164062.054688 1.71875-.503906 3.53125-.785156 5.414062-.785156h122.382813zm0 0" fill="#ffbd86"/><path d="m187.097656 423.121094-7.460937-20.484375-115.929688 32.867187c-.054687.015625-.109375.039063-.164062.054688 1.71875-.503906 3.53125-.785156 5.414062-.785156h71.050781zm0 0" fill="#f6a96c"/><path d="m451.785156 435.5-115.859375-32.84375-12.277343 32.113281h122.886718c1.882813 0 3.695313.285157 5.414063.789063-.054688-.015625-.105469-.039063-.164063-.058594zm0 0" fill="#ffbd86"/><path d="m276.992188 385.949219h-38.492188l-59.625 16.902343 12.246094 31.921876h16.285156l42.980469-12.1875c4.8125-1.363282 9.910156-1.363282 14.722656 0l42.980469 12.1875h15.738281l12.300781-32.058594zm0 0" fill="#ff646f"/><path d="m238.5 385.949219-59.625 16.902343 7.8125 20.371094 65.125-16.117187c7.664062-1.894531 13.046875-8.773438 13.046875-16.667969v-4.488281zm0 0" fill="#ff4755"/><path d="m323.914062 182.683594-16.761718 30.039062c-1.480469 2.652344-4.28125 4.296875-7.324219 4.296875h-84.167969c-3.039062 0-5.839844-1.644531-7.320312-4.296875l-16.902344-30.292968-32.683594 20.425781 23.878906 42.789062c3.398438 6.089844 9.828126 9.867188 16.804688 9.867188h32.886719c3.410156 0 6.175781 2.765625 6.175781 6.175781v124.257812c12.214844 4.765626 25.757812 4.828126 38.015625.183594l.476563-.183594v-124.257812c0-3.410156 2.761718-6.175781 6.171874-6.175781h32.890626c6.976562 0 13.40625-3.773438 16.804687-9.867188l23.734375-42.535156zm0 0" fill="#60b8ff"/><g fill="#22a7ff"><path d="m334.59375 212.722656 9.664062-17.324218-20.34375-12.714844-16.761718 30.035156c-1.480469 2.65625-4.285156 4.300781-7.324219 4.300781h27.4375c3.042969.003907 5.84375-1.644531 7.328125-4.296875zm0 0"/><path d="m208.988281 245.644531-23.625-42.34375-7.0625-12.660156-19.542969 12.214844 23.875 42.789062c3.398438 6.09375 9.828126 9.867188 16.804688 9.867188h26.359375c-6.976563 0-13.40625-3.773438-16.808594-9.867188zm0 0"/><path d="m270.859375 387.871094c-3.550781-.917969-6-4.179688-6-7.851563v-118.332031c0-3.410156-2.761719-6.175781-6.171875-6.175781h-26.359375c3.410156 0 6.175781 2.765625 6.175781 6.175781v124.261719c10.378906 4.046875 21.722656 4.6875 32.417969 1.9375-.019531-.003907-.039063-.007813-.0625-.015625zm0 0"/></g><path d="m446.535156 434.257812h-163.765625c-8.753906 0-16.558593 5.875-18.988281 14.285157l-5.496094 19.0625c-3.027344 10.492187 3.015625 21.433593 13.507813 24.460937 10.679687 3.078125 21.511719-3.277344 24.460937-13.511718l1.378906-4.777344h148.902344c10.894532 0 19.757813-8.863282 19.757813-19.761719 0-10.894531-8.859375-19.757813-19.757813-19.757813zm0 0" fill="#fed2a4"/><path d="m462.1875 442.003906c-3.734375 4.800782-9.636719 7.875-16.136719 7.875h-143.441406c-2.949219 0-5.539063 1.949219-6.355469 4.78125-2.96875 10.296875-13.917968 16.667969-24.660156 13.449219-4.78125-1.433594-8.566406-4.566406-10.988281-8.542969l-2.320313 8.039063c-3.027344 10.492187 3.015625 21.433593 13.507813 24.460937 10.679687 3.078125 21.511719-3.277344 24.460937-13.507812l1.378906-4.78125h148.902344c10.894532 0 19.761719-8.863282 19.761719-19.757813 0-4.523437-1.542969-8.679687-4.109375-12.015625zm0 0" fill="#ffbd86"/><path d="m257.207031 467.605469-5.496093-19.0625c-2.425782-8.410157-10.234376-14.285157-18.988282-14.285157h-163.765625c-10.894531 0-19.761719 8.863282-19.761719 19.757813 0 10.898437 8.867188 19.761719 19.761719 19.761719h148.902344l1.378906 4.777344c2.949219 10.230468 13.78125 16.589843 24.460938 13.511718 10.492187-3.027344 16.535156-13.96875 13.507812-24.460937zm0 0" fill="#fed2a4"/><path d="m254.890625 459.5625c-2.425781 3.980469-6.214844 7.117188-10.996094 8.546875-10.746093 3.214844-21.6875-3.160156-24.65625-13.449219-.816406-2.832031-3.40625-4.78125-6.351562-4.78125h-143.929688c-6.402343 0-12.09375-3.070312-15.703125-7.804687-2.535156 3.320312-4.058594 7.453125-4.058594 11.941406 0 10.898437 8.867188 19.761719 19.761719 19.761719h148.902344l1.378906 4.777344c2.949219 10.230468 13.78125 16.589843 24.460938 13.511718 10.492187-3.027344 16.535156-13.96875 13.507812-24.460937zm0 0" fill="#ffbd86"/><path d="m298.988281 158.609375c0 22.769531-18.457031 41.222656-41.222656 41.222656-22.769531 0-41.226563-18.453125-41.226563-41.222656 0-22.765625 18.457032-41.222656 41.226563-41.222656 22.765625 0 41.222656 18.457031 41.222656 41.222656zm0 0" fill="#fed2a4"/><path d="m264.058594 158.609375c0-13.917969 6.902344-26.210937 17.464844-33.675781-6.71875-4.75-14.910157-7.546875-23.757813-7.546875-22.769531 0-41.222656 18.457031-41.222656 41.222656 0 22.769531 18.453125 41.222656 41.222656 41.222656 8.847656 0 17.042969-2.796875 23.757813-7.542969-10.5625-7.464843-17.464844-19.761718-17.464844-33.679687zm0 0" fill="#ffbd86"/></svg>