<svg height="512pt" viewBox="-36 0 512 512.00056" width="512pt" xmlns="http://www.w3.org/2000/svg"><path d="m334.90625 296.851562v191.902344l-25.242188 8.410156c-3.988281 1.332032-6.140624 5.640626-4.8125 9.628907 1.328126 3.988281 5.640626 6.144531 9.628907 4.816406l30.441406-10.148437c3.109375-1.039063 5.207031-3.945313 5.207031-7.222657v-197.386719zm0 0" fill="#1990c2"/><path d="m411.019531 296.851562v191.902344l25.238281 8.410156c3.992188 1.332032 6.144532 5.640626 4.816407 9.628907s-5.640625 6.144531-9.628907 4.816406l-30.441406-10.148437c-3.109375-1.039063-5.207031-3.945313-5.207031-7.222657v-197.386719zm0 0" fill="#116f97"/><path d="m182.675781 296.851562v191.902344l-25.238281 8.410156c-3.988281 1.332032-6.144531 5.640626-4.816406 9.628907 1.332031 3.988281 5.640625 6.144531 9.628906 4.816406l30.445312-10.148437c3.105469-1.039063 5.203126-3.945313 5.203126-7.222657v-197.386719zm0 0" fill="#a45e43"/><path d="m258.789062 296.851562v191.902344l25.242188 8.410156c3.988281 1.332032 6.140625 5.640626 4.8125 9.628907s-5.640625 6.144531-9.625 4.816406l-30.445312-10.148437c-3.109376-1.039063-5.203126-3.945313-5.203126-7.222657v-197.386719zm0 0" fill="#85453d"/><path d="m30.445312 296.851562v191.902344l-25.238281 8.410156c-3.988281 1.332032-6.144531 5.640626-4.8125 9.628907 1.328125 3.988281 5.640625 6.144531 9.625 4.816406l30.445313-10.148437c3.109375-1.039063 5.203125-3.945313 5.203125-7.222657v-197.386719zm0 0" fill="#a45e43"/><path d="m106.5625 296.851562v191.902344l25.238281 8.410156c3.988281 1.332032 6.144531 5.640626 4.816407 9.628907-1.332032 3.988281-5.644532 6.144531-9.628907 4.816406l-30.445312-10.148437c-3.109375-1.039063-5.203125-3.945313-5.203125-7.222657v-197.386719zm0 0" fill="#85453d"/><path d="m372.960938 258.789062v76.117188c25.222656 0 45.667968-20.449219 45.667968-45.667969zm0 0" fill="#116f97"/><path d="m388.183594 289.238281-15.222656-30.449219-45.667969 30.449219c0 25.21875 20.445312 45.667969 45.667969 45.667969 8.40625 0 15.222656-20.449219 15.222656-45.667969zm0 0" fill="#1990c2"/><path d="m413.554688 167.484375h-30.445313l-30.445313 60.890625 35.519532 60.894531h30.445312v-45.671875c8.148438-6.117187 13.8125-15.363281 15.222656-25.949218v-29.867188c0-11.214844-9.082031-20.296875-20.296874-20.296875zm0 0" fill="#ffb4a9"/><path d="m403.40625 187.78125v29.867188c-1.410156 10.585937-7.074219 19.832031-15.222656 25.949218v45.671875h-60.890625v-45.671875c-8.152344-6.117187-13.8125-15.363281-15.222657-25.949218v-29.867188c0-11.214844 9.082032-20.296875 20.296876-20.296875h50.742187c11.214844 0 20.296875 9.082031 20.296875 20.296875zm0 0" fill="#ffd9d4"/><path d="m407.210938 22.835938c-.007813-7.882813-4.097657-15.550782-11.414063-19.777344-7.320313-4.222656-16.003906-3.929688-22.835937.003906-6.832032-3.9375-15.515626-4.226562-22.835938-.003906-7.316406 4.226562-11.40625 11.894531-11.414062 19.777344-6.824219 3.949218-11.417969 11.324218-11.417969 19.773437v48.726563h91.335937s0-40.273438 0-48.726563c0-8.449219-4.59375-15.824219-11.417968-19.773437zm0 0" fill="#40211d"/><path d="m372.960938 45.667969v102.503906l45.667968-46.683594v-10.148437c0-25.222656-20.445312-45.671875-45.667968-45.671875zm0 0" fill="#85453d"/><path d="m372.960938 45.667969c-25.222657 0-45.667969 20.449219-45.667969 45.671875v10.148437l60.890625 46.683594v-56.832031c0-25.222656-6.816406-45.671875-15.222656-45.671875zm0 0" fill="#a45e43"/><path d="m391.949219 101.488281c-1.070313-1.597656-2.339844-3.046875-3.765625-4.324219l-15.222656 70.289063c25.222656 0 45.667968-20.445313 45.667968-45.667969v-20.296875zm0 0" fill="#40211d"/><path d="m388.183594 121.785156v-24.621094c-4.039063-3.621093-9.371094-5.824218-15.222656-5.824218-7.917969 0-14.890626 4.027344-18.988282 10.148437h-26.679687v20.296875c0 25.222656 20.445312 45.667969 45.667969 45.667969 8.40625 0 15.222656-20.445313 15.222656-45.667969zm0 0" fill="#60312c"/><path d="m246.101562 223.269531h-30.445312v121.785157h50.742188v-101.488282c0-11.210937-9.085938-20.296875-20.296876-20.296875zm0 0" fill="#9db55f"/><path d="m266.398438 304.460938h-30.445313l15.222656 76.113281h30.445313v-35.859375c0-15.4375-5.753906-29.523438-15.222656-40.253906zm0 0" fill="#9db55f"/><path d="m235.953125 304.460938v-60.894532c0-11.210937-9.085937-20.296875-20.296875-20.296875h-20.296875c-11.210937 0-20.296875 9.085938-20.296875 20.296875v60.894532c-9.46875 10.730468-15.222656 24.816406-15.222656 40.253906v35.859375h91.335937v-35.859375c0-15.4375-5.753906-29.523438-15.222656-40.253906zm0 0" fill="#b9d171"/><path d="m68.503906 45.667969v91.339843c25.21875 0 45.667969-20.445312 45.667969-45.667968s-20.449219-45.671875-45.667969-45.671875zm0 0" fill="#85453d"/><path d="m83.726562 91.339844c0-25.222656-6.816406-45.671875-15.222656-45.671875-25.222656 0-45.671875 20.449219-45.671875 45.671875s20.449219 45.667968 45.671875 45.667968c8.40625 0 15.222656-20.445312 15.222656-45.667968zm0 0" fill="#a45e43"/><path d="m96.410156 15.222656c0-8.40625-6.816406-15.222656-15.222656-15.222656-5.296875 0-9.957031 2.710938-12.683594 6.816406-2.726562-4.105468-7.390625-6.816406-12.6875-6.816406-8.40625 0-15.222656 6.816406-15.222656 15.222656-8.40625 0-15.222656 6.816406-15.222656 15.222656 0 8.410157 6.816406 15.222657 15.222656 15.222657h55.816406c8.40625 0 15.222656-6.8125 15.222656-15.222657 0-8.40625-6.816406-15.222656-15.222656-15.222656zm0 0" fill="#40211d"/><path d="m220.730469 101.488281v91.335938c25.222656 0 45.667969-20.445313 45.667969-45.667969s-20.445313-45.667969-45.667969-45.667969zm0 0" fill="#85453d"/><path d="m235.953125 147.15625c0-25.222656-6.816406-45.667969-15.222656-45.667969-25.222657 0-45.667969 20.445313-45.667969 45.667969s20.445312 45.667969 45.667969 45.667969c8.40625 0 15.222656-20.445313 15.222656-45.667969zm0 0" fill="#a45e43"/><path d="m248.640625 71.039062c0-8.40625-6.816406-15.222656-15.222656-15.222656-5.296875 0-9.960938 2.710938-12.6875 6.816406-2.726563-4.105468-7.386719-6.816406-12.683594-6.816406-8.410156 0-15.222656 6.816406-15.222656 15.222656-8.410157 0-15.222657 6.816407-15.222657 15.226563 0 8.40625 6.8125 15.222656 15.222657 15.222656h55.816406c8.40625 0 15.222656-6.816406 15.222656-15.222656 0-8.410156-6.816406-15.226563-15.222656-15.226563zm0 0" fill="#40211d"/><path d="m53.277344 189.984375v99.253906h60.894531v-68.808593zm0 0" fill="#85453d"/><path d="m22.832031 220.429688v68.808593h60.894531v-99.253906zm0 0" fill="#a45e43"/><path d="m93.875 167.453125h-30.449219l20.300781 52.976563c3.367188 4.789062 8.929688 7.914062 15.222657 7.914062 6.289062 0 11.851562-3.125 15.222656-7.914062v-32.679688c0-11.214844-9.085937-20.296875-20.296875-20.296875zm0 0" fill="#ffb4a9"/><path d="m83.726562 187.75v32.679688c-3.371093 4.789062-8.933593 7.914062-15.222656 7.914062-6.292968 0-11.855468-3.125-15.226562-7.914062-3.367188 4.789062-8.929688 7.914062-15.222656 7.914062-6.289063 0-11.851563-3.125-15.222657-7.914062v-32.679688c0-11.214844 9.085938-20.296875 20.296875-20.296875h20.296875c11.214844 0 20.300781 9.082031 20.300781 20.296875zm0 0" fill="#ffd9d4"/><path d="m114.171875 258.789062h-30.445313l15.222657 91.339844h30.445312v-51.082031c0-15.4375-5.757812-29.523437-15.222656-40.257813zm0 0" fill="#2dade3"/><path d="m83.726562 258.789062h-60.894531c-9.464843 10.734376-15.222656 24.820313-15.222656 40.257813v51.082031h91.339844v-51.082031c0-15.4375-5.757813-29.523437-15.222657-40.257813zm0 0" fill="#49c9ff"/></svg>