<?xml version="1.0" encoding="iso-8859-1"?>
<!-- Generator: Adobe Illustrator 19.0.0, SVG Export Plug-In . SVG Version: 6.00 Build 0)  -->
<svg version="1.1" id="Capa_1" xmlns="http://www.w3.org/2000/svg" xmlns:xlink="http://www.w3.org/1999/xlink" x="0px" y="0px"
	 viewBox="0 0 512 512" style="enable-background:new 0 0 512 512;" xml:space="preserve">
<path style="fill:#60312C;" d="M228.5,326v150c0,4.142,3.357,7.5,7.5,7.5s7.5-3.358,7.5-7.5V326H228.5z"/>
<path style="fill:#40211D;" d="M268.5,326v150c0,4.142,3.357,7.5,7.5,7.5s7.5-3.358,7.5-7.5V326H268.5z"/>
<path style="fill:#2DADE3;" d="M281,193.5h-30l-20,100h70v-80C301,202.454,292.046,193.5,281,193.5z"/>
<path style="fill:#49C9FF;" d="M251,193.5h-20c-11.046,0-20,8.954-20,20v80h60v-80C271,202.454,262.046,193.5,251,193.5z"/>
<g>
	<circle style="fill:#FFFFFF;" cx="256" cy="223.5" r="7.5"/>
	<circle style="fill:#FFFFFF;" cx="256" cy="253.5" r="7.5"/>
</g>
<path style="fill:#85453D;" d="M256,73.5v90c24.853,0,45-20.147,45-45S280.853,73.5,256,73.5z"/>
<path style="fill:#A45E43;" d="M271,118.5c0-24.853-6.716-45-15-45c-24.853,0-45,20.147-45,45s20.147,45,45,45
	C264.284,163.5,271,143.353,271,118.5z"/>
<circle style="fill:#40211D;" cx="256" cy="51" r="22.5"/>
<rect x="211" y="293.5" style="fill:#FF4128;" width="90" height="42.5"/>
<path style="fill:#116F97;" d="M334.5,336c-4.142,0-7.5,3.358-7.5,7.5V461h-21c-4.142,0-7.5,3.358-7.5,7.5s3.358,7.5,7.5,7.5h28.5
	c4.142,0,7.5-3.358,7.5-7.5V351h62.5v-15H334.5z"/>
<path style="fill:#9DB55F;" d="M206,461h-21V343.5c0-4.142-3.358-7.5-7.5-7.5h-70v15H170v117.5c0,4.142,3.358,7.5,7.5,7.5H206
	c4.142,0,7.5-3.358,7.5-7.5S210.142,461,206,461z"/>
<path style="fill:#A45E43;" d="M384.5,381v87.5c0,4.142,3.358,7.5,7.5,7.5s7.5-3.358,7.5-7.5V361L384.5,381z"/>
<g>
	<path style="fill:#85453D;" d="M112.5,361v107.5c0,4.142,3.358,7.5,7.5,7.5s7.5-3.358,7.5-7.5V381L112.5,361z"/>
	<polygon style="fill:#85453D;" points="354.5,276 324.5,291 354.5,306 404.5,306 404.5,276 	"/>
</g>
<rect x="107.5" y="276" style="fill:#A45E43;" width="247" height="30"/>
<polygon style="fill:#9DB55F;" points="67.5,276 97.5,366 127.5,351 127.5,306 "/>
<path style="fill:#B9D171;" d="M37.5,306c0,24.853,20.147,45,45,45l15,15v-80L37.5,306z"/>
<path style="fill:#A8E5FF;" d="M107.5,186h-30l20,120h30V206C127.5,194.954,118.546,186,107.5,186z"/>
<path style="fill:#084F6D;" d="M429.5,276v75c24.853,0,45-20.147,45-45L429.5,276z"/>
<path style="fill:#116F97;" d="M444.5,306v-30l-60,30v45l22.5,15l22.5-15C437.784,351,444.5,330.853,444.5,306z"/>
<polygon style="fill:#85453D;" points="474.5,351 454.5,366 474.5,381 504.5,381 504.5,351 "/>
<rect x="384.5" y="351" style="fill:#A45E43;" width="90" height="30"/>
<polygon style="fill:#85453D;" points="97.5,351 77.5,366 97.5,381 127.5,381 127.5,351 "/>
<g>
	<rect x="7.5" y="351" style="fill:#A45E43;" width="90" height="30"/>
	<path style="fill:#A45E43;" d="M504.5,476c-4.142,0-7.5-3.358-7.5-7.5v-275c0-4.142,3.358-7.5,7.5-7.5s7.5,3.358,7.5,7.5v275
		C512,472.642,508.642,476,504.5,476z"/>
	<path style="fill:#A45E43;" d="M7.5,476c-4.142,0-7.5-3.358-7.5-7.5v-275c0-4.142,3.358-7.5,7.5-7.5s7.5,3.358,7.5,7.5v275
		C15,472.642,11.642,476,7.5,476z"/>
</g>
<path style="fill:#FFCB63;" d="M454.5,186h-30l20,120h30V206C474.5,194.954,465.546,186,454.5,186z"/>
<path style="fill:#FFE2A8;" d="M424.5,186h-20c-11.046,0-20,8.954-20,20v100h60V206C444.5,194.954,435.546,186,424.5,186z"/>
<path style="fill:#FFB4A9;" d="M82.5,66v90c24.853,0,45-20.147,45-45S107.353,66,82.5,66z"/>
<path style="fill:#FFD9D4;" d="M97.5,111c0-24.853-6.716-45-15-45c-24.853,0-45,20.147-45,45s20.147,45,45,45
	C90.784,156,97.5,135.853,97.5,111z"/>
<path style="fill:#DBF4FF;" d="M97.5,206c0-11.046-8.954-20-20-20h-20c-11.046,0-20,8.954-20,20v100h60V206z"/>
<path style="fill:#C27749;" d="M471.929,96L429.5,76v80c24.853,0,45-20.147,45-45C474.5,105.739,473.588,100.693,471.929,96z"/>
<path style="fill:#40211D;" d="M429.5,66l14.143,30h28.286C465.751,78.524,449.092,66,429.5,66z"/>
<path style="fill:#E18F4E;" d="M443.643,96l-42.429-19.99C391.022,84.26,384.5,96.866,384.5,111c0,24.853,20.147,45,45,45
	c8.284,0,15-20.147,15-45C444.5,105.739,444.196,100.693,443.643,96z"/>
<path style="fill:#60312C;" d="M429.5,96h14.143c-2.06-17.476-7.613-30-14.143-30c-10.719,0-20.557,3.754-28.286,10.01
	C405.331,87.661,416.43,96,429.5,96z"/>
<g>
</g>
<g>
</g>
<g>
</g>
<g>
</g>
<g>
</g>
<g>
</g>
<g>
</g>
<g>
</g>
<g>
</g>
<g>
</g>
<g>
</g>
<g>
</g>
<g>
</g>
<g>
</g>
<g>
</g>
</svg>
