<?xml version="1.0" encoding="iso-8859-1"?>
<!-- Generator: Adobe Illustrator 19.0.0, SVG Export Plug-In . SVG Version: 6.00 Build 0)  -->
<svg version="1.1" id="Capa_1" xmlns="http://www.w3.org/2000/svg" xmlns:xlink="http://www.w3.org/1999/xlink" x="0px" y="0px"
	 viewBox="0 0 512.002 512.002" style="enable-background:new 0 0 512.002 512.002;" xml:space="preserve">
<path style="fill:#B9D171;" d="M504.501,97.5c-4.142,0-7.5,3.358-7.5,7.5v11.5c0,41.907-34.093,76-76,76h-30v15h30
	c50.178,0,91-40.822,91-91V105C512.001,100.858,508.643,97.5,504.501,97.5z"/>
<path style="fill:#FFD9D4;" d="M7.501,97.5c4.142,0,7.5,3.358,7.5,7.5v11.5c0,41.907,34.093,76,76,76h30v15h-30
	c-50.178,0-91-40.822-91-91V105C0.001,100.858,3.359,97.5,7.501,97.5z"/>
<rect x="293.5" y="192.5" style="fill:#FFCB63;" width="45" height="15"/>
<rect x="173.5" y="192.5" style="fill:#FFB4A9;" width="45" height="15"/>
<path style="fill:#E18F4E;" d="M313.629,497.385l24.872-8.29V307.5h15v187c0,3.229-2.066,6.095-5.128,7.115l-30,10
	c-0.787,0.262-1.586,0.387-2.373,0.387c-3.14,0-6.066-1.987-7.114-5.13C307.576,502.942,309.7,498.694,313.629,497.385z"/>
<path style="fill:#084F6D;" d="M318.373,497.385l-24.872-8.29V307.5h-15v187c0,3.229,2.066,6.095,5.128,7.115l30,10
	c0.787,0.262,1.586,0.387,2.373,0.387c3.14,0,6.066-1.987,7.114-5.13C324.426,502.942,322.302,498.694,318.373,497.385z"/>
<path id="SVGCleanerId_0" style="fill:#116F97;" d="M193.629,497.385l24.872-8.29V307.5h15v187c0,3.229-2.066,6.095-5.128,7.115
	l-30,10c-0.787,0.262-1.586,0.387-2.373,0.387c-3.14,0-6.066-1.987-7.114-5.13C187.576,502.942,189.7,498.694,193.629,497.385z"/>
<g>
	<path id="SVGCleanerId_0_1_" style="fill:#116F97;" d="M193.629,497.385l24.872-8.29V307.5h15v187c0,3.229-2.066,6.095-5.128,7.115
		l-30,10c-0.787,0.262-1.586,0.387-2.373,0.387c-3.14,0-6.066-1.987-7.114-5.13C187.576,502.942,189.7,498.694,193.629,497.385z"/>
</g>
<path style="fill:#002F42;" d="M173.501,317.5v171.595l24.872,8.29c3.93,1.31,6.053,5.558,4.744,9.487
	c-1.048,3.143-3.974,5.13-7.114,5.13c-0.786,0-1.586-0.125-2.373-0.387l-30-10c-3.063-1.021-5.128-3.887-5.128-7.115v-177
	C158.501,313.357,173.501,313.357,173.501,317.5z"/>
<path style="fill:#084F6D;" d="M97.413,327.811v72.36L22.63,425.098c-3.063,1.021-5.128,3.887-5.128,7.115v31.623
	c0,4.143,3.358,7.5,7.5,7.5s7.5-3.357,7.5-7.5v-26.218l74.783-24.927c3.063-1.021,5.128-3.887,5.128-7.115V327.81L97.413,327.811
	L97.413,327.811z"/>
<path style="fill:#C27749;" d="M489.373,425.098l-74.783-24.927v-94.14h-15v99.545c0,3.229,2.066,6.095,5.128,7.115l74.783,24.927
	v26.218c0,4.143,3.358,7.5,7.5,7.5s7.5-3.357,7.5-7.5v-31.623C494.501,428.984,492.435,426.118,489.373,425.098z"/>
<path style="fill:#084F6D;" d="M256.001,262.5v75c24.853,0,45-20.147,45-45L256.001,262.5z"/>
<path style="fill:#116F97;" d="M271.001,292.5l-15-30l-45,30c0,24.853,20.147,45,45,45C264.285,337.5,271.001,317.353,271.001,292.5
	z"/>
<path style="fill:#FFCB63;" d="M281.001,172.5h-30l20,120h30v-100C301.001,181.454,292.047,172.5,281.001,172.5z"/>
<path style="fill:#FFE2A8;" d="M251.001,172.5h-20c-11.046,0-20,8.954-20,20v100h60v-100
	C271.001,181.454,262.047,172.5,251.001,172.5z"/>
<path style="fill:#C27749;" d="M298.43,82.5l-42.429-20v80c24.853,0,45-20.147,45-45C301.001,92.239,300.089,87.193,298.43,82.5z"/>
<path style="fill:#40211D;" d="M256.001,52.5l14.143,30h28.286C292.252,65.024,275.593,52.5,256.001,52.5z"/>
<path style="fill:#E18F4E;" d="M270.144,82.5l-42.429-19.99c-10.192,8.25-16.714,20.856-16.714,34.99c0,24.853,20.147,45,45,45
	c8.284,0,15-20.147,15-45C271.001,92.239,270.697,87.193,270.144,82.5z"/>
<path style="fill:#60312C;" d="M256.001,82.5h14.143c-2.06-17.476-7.613-30-14.143-30c-10.719,0-20.557,3.754-28.286,10.01
	C231.832,74.161,242.931,82.5,256.001,82.5z"/>
<path style="fill:#FFE2A8;" d="M161.001,172.5h-30l-20,120l70-30v-70C181.001,181.454,172.047,172.5,161.001,172.5z"/>
<path style="fill:#FFF0D3;" d="M131.001,172.5h-20c-11.046,0-20,8.954-20,20v100h60v-100
	C151.001,181.454,142.047,172.5,131.001,172.5z"/>
<polygon style="fill:#FF6337;" points="181.001,262.5 151.001,262.5 131.001,300 151.001,347.81 181.001,347.81 "/>
<path style="fill:#FF8646;" d="M151.001,262.5h-60c-9.329,10.575-15,24.454-15,39.665v45.645h75V262.5z"/>
<circle style="fill:#FF6337;" cx="86" cy="117.5" r="25"/>
<path style="fill:#FFB4A9;" d="M150.093,82.047L136.001,142.5c24.853,0,45-20.147,45-45L150.093,82.047z"/>
<path style="fill:#FFD9D4;" d="M151.001,97.5c0-5.429-0.321-10.634-0.908-15.453l-41.095-20.546
	C98.071,69.712,91.001,82.78,91.001,97.5c0,24.853,20.147,45,45,45C144.285,142.5,151.001,122.353,151.001,97.5z"/>
<path style="fill:#FF4128;" d="M136.001,52.5L150.9,92.332c9.413,3.341,19.543,5.168,30.101,5.168
	C181.001,72.647,160.854,52.5,136.001,52.5z"/>
<path style="fill:#FF6337;" d="M136.001,52.5c-10.132,0-19.481,3.35-27.003,9.002c10.532,14.02,25.066,24.856,41.901,30.831
	C150.045,69.915,143.702,52.5,136.001,52.5z"/>
<path style="fill:#C27749;" d="M376.001,262.5v75c24.853,0,45-20.147,45-45L376.001,262.5z"/>
<path style="fill:#E18F4E;" d="M391.001,292.5l-15-30l-45,30c0,24.853,20.147,45,45,45C384.285,337.5,391.001,317.353,391.001,292.5
	z"/>
<path style="fill:#B9D171;" d="M401.001,172.5h-30l20,120h30v-100C421.001,181.454,412.047,172.5,401.001,172.5z"/>
<path style="fill:#D5E3AA;" d="M371.001,172.5h-20c-11.046,0-20,8.954-20,20v100h60v-100
	C391.001,181.454,382.047,172.5,371.001,172.5z"/>
<path style="fill:#40211D;" d="M368.501,152.5v110c0,4.143,3.358,7.5,7.5,7.5s7.5-3.357,7.5-7.5v-110H368.501z"/>
<circle style="fill:#B9D171;" cx="52.5" cy="37.5" r="15"/>
<circle style="fill:#FFCB63;" cx="22.501" cy="291.5" r="15"/>
<circle style="fill:#B9D171;" cx="489.5" cy="291.5" r="15"/>
<circle style="fill:#FFB4A9;" cx="314.87" cy="22.5" r="15"/>
<circle style="fill:#FF8646;" cx="109.82" cy="7.5" r="7.5"/>
<circle style="fill:#49C9FF;" cx="196" cy="36.5" r="7.5"/>
<circle style="fill:#FFCB63;" cx="402.19" cy="22.5" r="7.5"/>
<circle style="fill:#49C9FF;" cx="22.501" cy="217.5" r="7.5"/>
<g>
	<circle style="fill:#FF8646;" cx="444.5" cy="52.5" r="7.5"/>
	<circle style="fill:#FF8646;" cx="489.5" cy="217.5" r="7.5"/>
</g>
<circle style="fill:#49C9FF;" cx="459.5" cy="247.5" r="7.5"/>
<path style="fill:#85453D;" d="M376.001,52.5v101l45-46v-10C421.001,72.647,400.854,52.5,376.001,52.5z"/>
<path style="fill:#A45E43;" d="M376.001,52.5c-24.853,0-45,20.147-45,45v10l60,46v-56C391.001,72.647,384.285,52.5,376.001,52.5z"/>
<path style="fill:#FFE2A8;" d="M394.71,107.5c-1.053-1.573-2.303-3.002-3.709-4.261l-15,69.261c24.853,0,45-20.147,45-45v-20H394.71
	z"/>
<path style="fill:#FFF0D3;" d="M391.001,127.5v-24.261c-3.981-3.566-9.235-5.739-15-5.739c-7.801,0-14.672,3.971-18.709,10h-26.291
	v20c0,24.853,20.147,45,45,45C384.285,172.5,391.001,152.353,391.001,127.5z"/>
<g>
</g>
<g>
</g>
<g>
</g>
<g>
</g>
<g>
</g>
<g>
</g>
<g>
</g>
<g>
</g>
<g>
</g>
<g>
</g>
<g>
</g>
<g>
</g>
<g>
</g>
<g>
</g>
<g>
</g>
</svg>
